<svg xmlns:inkscape="http://www.inkscape.org/namespaces/inkscape" xmlns:sodipodi="http://sodipodi.sourceforge.net/DTD/sodipodi-0.dtd" xmlns:xlink="http://www.w3.org/1999/xlink" xmlns="http://www.w3.org/2000/svg" xmlns:svg="http://www.w3.org/2000/svg" version="1.1" id="svg1" inkscape:version="1.3.2 (091e20e, 2023-11-25, custom)" sodipodi:docname="campus quest.svg" inkscape:export-filename="campus quest.png" inkscape:export-xdpi="96" inkscape:export-ydpi="96" viewBox="4.47 43.91 306.67 65.19">
  <sodipodi:namedview id="namedview1" pagecolor="#7a7a7a" bordercolor="#eeeeee" borderopacity="1" inkscape:showpageshadow="0" inkscape:pageopacity="0" inkscape:pagecheckerboard="true" inkscape:deskcolor="#505050" inkscape:document-units="px" showborder="true" showgrid="false" showguides="true" inkscape:lockguides="false" inkscape:zoom="0.70710678" inkscape:cx="504.16713" inkscape:cy="222.73864" inkscape:window-width="1920" inkscape:window-height="991" inkscape:window-x="-9" inkscape:window-y="-9" inkscape:window-maximized="1" inkscape:current-layer="layer1" inkscape:export-bgcolor="#ffffff00">
    <inkscape:grid id="grid1" units="px" originx="0" originy="0" spacingx="0.26458333" spacingy="0.26458333" empcolor="#0099e5" empopacity="0.30196078" color="#0099e5" opacity="0.14901961" empspacing="5" dotted="false" gridanglex="30" gridanglez="30" visible="false"/>
  </sodipodi:namedview>
  <defs id="defs1">
    <linearGradient id="swatch5980" inkscape:swatch="solid">
      <stop style="stop-color:#efbf04;stop-opacity:1;" offset="0" id="stop5980"/>
    </linearGradient>
    <inkscape:path-effect effect="bspline" id="path-effect5810" is_visible="true" lpeversion="1.3" weight="33.333333" steps="2" helper_size="0" apply_no_weight="true" apply_with_weight="true" only_selected="false" uniform="false"/>
    <linearGradient id="swatch3" inkscape:swatch="solid">
      <stop style="stop-color:#000000;stop-opacity:1;" offset="0" id="stop3"/>
    </linearGradient>
    <rect x="26.004317" y="21.670264" width="1149.9686" height="342.39017" id="rect1"/>
    <linearGradient inkscape:collect="always" xlink:href="#swatch3" id="linearGradient3" x1="183.92906" y1="197.87252" x2="1020.3275" y2="197.87252" gradientUnits="userSpaceOnUse" gradientTransform="matrix(0.3647936,0,0,0.3647936,-61.844217,11.618001)"/>
    <linearGradient inkscape:collect="always" xlink:href="#swatch5980" id="linearGradient5980" x1="4.2756958" y1="83.800575" x2="311.3407" y2="83.800575" gradientUnits="userSpaceOnUse"/>
  </defs>
  <g inkscape:groupmode="layer" id="layer2" inkscape:label="Layer 2" style="display:inline"/>
  <g inkscape:label="Layer 1" inkscape:groupmode="layer" id="layer1">
    <g id="g8" style="fill:#959595;fill-opacity:1" transform="matrix(1.3787475,0,0,1.3787475,-61.317205,-23.164764)">
      <path id="rect3" style="fill:#000000;fill-opacity:1;stroke-width:0.27305;stroke-dasharray:none" d="m 56.571224,59.657857 v 32.59491 l -10e-4,0.0021 2.055172,3.679362 2.055689,-3.679362 -5.17e-4,-0.001 v -32.59601 z"/>
    </g>
    <g id="g9" style="fill:#000000;fill-opacity:1" transform="matrix(1.3787475,0,0,1.3787475,-61.317205,-23.164764)">
      <ellipse style="fill:#000000;fill-opacity:1;stroke-width:0.188127" id="path10" cx="52.064072" cy="58.89785" rx="1.2628484" ry="1.2979276"/>
      <rect style="fill:#000000;fill-opacity:1;stroke-width:0.192787" id="rect2" width="13.229167" height="1.7723033" x="51.980572" y="57.973938"/>
      <ellipse style="fill:#000000;fill-opacity:1;stroke-width:0.188127" id="path10-6" cx="65.143188" cy="58.927486" rx="1.2628484" ry="1.2979276"/>
    </g>
    <rect style="fill:#000000;fill-opacity:1;stroke-width:0.418983" id="rect11" width="3.9389153" height="11.512547" x="17.553776" y="46.178272" ry="1.0276417"/>
    <path id="text1" style="font-size:120px;line-height:2;font-family:Archivo;-inkscape-font-specification:Archivo;text-align:center;white-space:pre;shape-padding:50.5644;fill:url(#linearGradient5980);fill-opacity:1;stroke:url(#linearGradient3);stroke-width:1.55548542;stroke-dasharray:none" d="m 20.047353,64.627064 c -9.411612,0 -14.7954771,5.034155 -14.7954771,15.540134 0,10.724855 5.3838651,15.540138 14.7954771,15.540138 7.879477,0 13.526824,-3.852392 13.526824,-11.819433 h -6.303491 c 0,4.202397 -2.801392,6.47919 -7.17889,6.47919 -5.559429,0 -8.099249,-3.239494 -8.099249,-9.543088 v -1.357021 c 0,-6.172282 2.539477,-9.499163 8.142656,-9.499163 4.071071,0 6.872449,2.363461 6.872449,6.522083 h 6.566525 c 0,-7.967042 -5.778673,-11.86284 -13.526824,-11.86284 z m 281.387987,0.963248 -1.13895,6.566522 h -3.06441 v 4.683954 h 2.84582 v 13.000755 c 0,3.239341 1.75128,5.865793 6.12883,5.865793 1.31325,0 3.15105,-0.350016 4.15788,-0.700218 v -4.027142 h -2.14455 c -1.44459,0 -2.05726,-0.744307 -2.05726,-2.145089 V 76.840788 h 4.20181 V 72.156834 H 306.1627 V 65.590312 Z M 47.757291,71.630769 c -6.040942,0 -9.893455,2.539594 -9.893455,6.523115 0,0.350202 7.3e-4,0.656158 0.04444,0.918809 H 43.81748 V 78.54766 c 0,-1.269481 1.05082,-2.451529 3.983735,-2.451529 2.889155,0 3.72122,1.400968 3.72122,3.370853 v 1.706873 c -8.798771,0 -14.708664,1.66367 -14.708664,8.054803 0,5.428103 4.377683,6.478676 7.441924,6.478676 3.677094,0 5.997273,-1.269277 7.573181,-3.107822 h 0.305923 c 0.525303,1.88232 2.276272,3.064412 4.81521,3.064412 1.751009,0 2.976592,-0.393788 3.589445,-0.700214 v -3.983736 h -1.444356 c -0.831719,0 -1.488282,-0.482119 -1.488282,-1.532724 V 78.985358 c 0,-4.859014 -3.545929,-7.354589 -9.849525,-7.354589 z m 28.497482,0 c -3.02048,0 -5.384091,1.444769 -6.872449,3.677294 h -0.306441 l -0.481622,-3.151229 h -5.033802 v 23.025469 h 6.0849 V 81.743329 c 0,-2.932915 1.83864,-5.077726 4.246252,-5.077726 2.101197,0 3.414264,1.094081 3.414264,3.983221 v 14.533479 h 6.084381 V 81.743329 c 0,-2.932915 1.795358,-5.077726 4.246771,-5.077726 2.05741,0 3.41426,1.094081 3.41426,3.983221 v 14.533479 h 6.084385 V 79.554316 c 0,-5.646954 -2.888578,-7.923547 -7.2223,-7.923547 -3.108016,0 -5.60373,1.488544 -7.092073,3.677294 h -0.306441 c -1.181917,-2.582727 -3.370934,-3.677294 -6.260085,-3.677294 z m 39.179007,0 c -2.97669,0 -5.51551,1.138699 -7.04763,3.633888 h -0.30644 l -0.52504,-3.107823 h -4.99039 v 30.817246 h 6.08438 V 92.642924 h 0.26303 c 1.40081,2.05741 3.76399,3.064412 6.74068,3.064412 5.34054,0 9.06146,-3.764407 9.06146,-11.9941 0,-8.361003 -3.54554,-12.082467 -9.28005,-12.082467 z m 49.68534,0 c -5.73452,0 -10.1999,2.232909 -10.1999,7.048148 0,4.859025 4.42151,6.040654 8.36125,7.003709 3.19557,0.831718 6.08438,1.270032 6.08438,3.327443 0,1.751009 -2.36386,2.276348 -4.37751,2.276348 -2.40762,0 -4.64017,-0.831901 -4.68395,-3.064412 v -0.350366 h -5.86579 c -0.0438,0.131326 -0.0434,0.350756 -0.0434,0.613397 0,4.377497 4.07061,7.2223 10.41797,7.2223 5.95339,0 10.59367,-1.925552 10.59367,-7.528741 0,-5.82207 -5.64662,-6.30378 -9.84901,-7.441921 -2.58272,-0.700404 -4.64055,-1.095107 -4.64055,-2.627229 0,-1.269467 1.57596,-2.056725 3.93981,-2.056725 2.49517,0 4.02715,0.962807 4.02715,2.49494 v 0.349848 h 5.82238 c 0.0438,-0.08755 0.0434,-0.524828 0.0434,-0.918805 0,-4.027296 -4.24558,-6.347934 -9.6299,-6.347934 z m 94.64177,0 c -7.44174,0 -11.46959,3.80885 -11.46959,12.038543 0,8.273467 3.984,12.038024 11.60084,12.038024 6.3036,0 10.63759,-2.845102 10.63759,-8.667171 h -5.95364 c 0,2.757829 -1.88234,4.158403 -4.68395,4.158403 -3.80842,0 -5.29729,-2.101164 -5.42861,-6.172235 h 16.0662 v -1.576131 c 0,-8.229693 -3.76486,-11.819433 -10.76884,-11.819433 z m 24.86463,0 c -5.73451,0 -10.1999,2.232909 -10.1999,7.048148 0,4.859025 4.42099,6.040654 8.36073,7.003709 3.19557,0.831718 6.0849,1.270032 6.0849,3.327443 0,1.751009 -2.36387,2.276348 -4.37751,2.276348 -2.40764,0 -4.64018,-0.831901 -4.68395,-3.064412 V 87.871639 H 273.944 c -0.0438,0.131326 -0.0439,0.350756 -0.0439,0.613397 0,4.377497 4.07165,7.2223 10.419,7.2223 5.95339,0 10.59315,-1.925552 10.59315,-7.528741 0,-5.82207 -5.64712,-6.30378 -9.84952,-7.441921 -2.58271,-0.700404 -4.64003,-1.095107 -4.64003,-2.627229 0,-1.269467 1.57597,-2.056725 3.93981,-2.056725 2.49518,0 4.02715,0.962807 4.02715,2.49494 v 0.349848 h 5.82238 c 0.0438,-0.08755 0.0434,-0.524828 0.0434,-0.918805 0,-4.027296 -4.24559,-6.347934 -9.6299,-6.347934 z m -155.62099,0.526065 v 15.408364 c 0,5.778279 2.97645,8.142138 7.61658,8.142138 3.28312,0 5.91012,-1.488544 7.52978,-3.677294 h 0.30592 l 0.4377,3.152261 h 4.99039 V 72.156834 H 143.8 v 13.394532 c 0,2.932915 -2.05723,5.078244 -4.77128,5.078244 -2.4514,0 -3.93929,-1.09437 -3.93929,-4.071071 V 72.156834 Z m 93.94155,0 v 15.408364 c 0,5.778279 2.97644,8.142138 7.61659,8.142138 3.28311,0 5.90957,-1.488544 7.52925,-3.677294 h 0.30644 l 0.4377,3.152261 h 4.99091 V 72.156834 h -6.08541 v 13.394532 c 0,2.932915 -2.05725,5.078244 -4.77129,5.078244 -2.45139,0 -3.93981,-1.09437 -3.93981,-4.071071 V 72.156834 Z m 36.90265,3.983736 c 2.67027,0 4.42092,1.487504 4.42092,5.033287 h -9.71827 c 0.39397,-3.370682 1.92669,-5.033287 5.29735,-5.033287 z m -146.29752,0.480594 c 3.63331,0 4.94698,2.145249 4.94698,6.566521 v 1.007174 c 0,4.333708 -1.31367,6.522082 -4.94698,6.522082 -3.45822,0 -4.94596,-2.494867 -4.94596,-6.697263 v -0.744657 c 0,-4.202397 1.48774,-6.653857 4.94596,-6.653857 z m -62.028775,8.317837 v 1.26969 c 0,2.88914 -1.970677,4.902541 -5.210019,4.902541 -2.1012,0 -3.326411,-0.875428 -3.326411,-2.538861 0,-2.757829 3.633629,-3.63337 8.53643,-3.63337 z"/>
    <rect style="display:inline;fill:#000000;fill-opacity:1;stroke-width:0.450574" id="rect4" width="8.3247852" height="10.675466" x="-136.59874" y="-192.67229" transform="matrix(-0.88397821,0.4675281,-0.50581761,-0.86264045,0,0)" inkscape:label="rect4" ry="2.1882927"/>
    <ellipse style="display:inline;fill:#000000;fill-opacity:1;fill-rule:nonzero;stroke-width:0.370108" id="path1" cx="201.93629" cy="80.240166" rx="16.960083" ry="17.1213"/>
    <ellipse style="display:inline;fill:#efbf04;fill-opacity:1;fill-rule:evenodd;stroke-width:0.867382;stroke-dasharray:none" id="path33" cx="201.93765" cy="80.337379" rx="13.446491" ry="13.815195"/>
    <path style="fill:#000000;fill-opacity:1;fill-rule:nonzero;stroke-width:3.24332;stroke-dasharray:none" id="path5810" d="m 205.15451,16.020992 a 10.604488,10.267246 0 0 1 2.03385,-12.3691604 10.604488,10.267246 0 0 1 12.87048,-1.2620899 l -5.58846,8.7258423 z" sodipodi:type="arc" sodipodi:arc-type="slice" sodipodi:start="2.6434754" sodipodi:end="5.2674434" sodipodi:ry="10.267246" sodipodi:rx="10.604488" sodipodi:cy="11.115584" sodipodi:cx="214.47038" transform="matrix(0.94748372,0.31980401,-0.17675095,0.98425561,0,0)"/>
    <ellipse style="fill:#efbf04;fill-opacity:1;fill-rule:nonzero;stroke-width:4.42752;stroke-dasharray:none" id="path5979" cx="202.36243" cy="80.205284" rx="11.555396" ry="11.029249"/>
    <circle style="fill:#000000;fill-opacity:1;fill-rule:nonzero;stroke-width:1.55549;stroke-dasharray:none" id="path5980" cx="19.503922" cy="46.559082" r="2.6458333"/>
  </g>
</svg>